<?xml version="1.0" encoding="utf-8"?>
<!-- Generator: Adobe Illustrator 25.1.0, SVG Export Plug-In . SVG Version: 6.00 Build 0)  -->
<svg version="1.1" id="Calque_1" xmlns="http://www.w3.org/2000/svg" xmlns:xlink="http://www.w3.org/1999/xlink" x="0px" y="0px"
	 viewBox="0 0 317.6 366.8" style="enable-background:new 0 0 317.6 366.8;" xml:space="preserve">
<style type="text/css">
	.st0{fill:#D90668;stroke:#D90668;stroke-width:9;stroke-linejoin:round;stroke-miterlimit:10;}
	.st1{fill:#FFD402;}
	.st2{fill:#EDEDED;}
	.st3{fill:#D8AF07;}
	.st4{fill:url(#SVGID_1_);}
	.st5{fill:none;stroke:#D8AF07;stroke-width:2;stroke-linecap:round;stroke-miterlimit:10;}
	.st6{fill:#FFFFFF;}
	.st7{fill:none;}
	.st8{fill:url(#SVGID_2_);}
	.st9{fill:url(#SVGID_3_);}
	.st10{fill:#D90668;}
	.st11{fill:url(#SVGID_4_);}
	.st12{enable-background:new    ;}
	.st13{clip-path:url(#SVGID_6_);}
	.st14{fill:#FFD401;}
	.st15{clip-path:url(#SVGID_8_);}
	.st16{fill:#4F2680;}
	.st17{fill:#EFC304;}
	.st18{fill:#351452;}
	.st19{fill:url(#SVGID_9_);}
	.st20{fill:url(#SVGID_10_);}
	.st21{fill:url(#SVGID_11_);}
	.st22{fill:url(#SVGID_12_);}
	.st23{fill:url(#SVGID_13_);}
	.st24{opacity:0.35;}
</style>
<g>
	<path class="st0" d="M312.4,100.9c0-1.5-1-2.7-2.2-3.2c0,0,0,0,0.1,0l-2-1.2c-1.4-0.8-3.1-0.9-4.5-0.1l-4.1,2.3l-9.3,5.3l-23-13
		V75.7v-0.9c0-1.2-0.6-2.2-1.4-2.8l-0.7-0.4l0,0l-1.7-1l-0.3-0.2c-0.1,0-0.1,0-0.2-0.1l-6.4-3.7c-1.2-0.7-2.8-0.7-4,0l-3.5,2l0,0
		l-2.2,1.2l-9.3,5.3l-23-13V46.9V46c0-1.2-0.6-2.2-1.4-2.8l-0.7-0.4l0,0l-0.4-0.3l0.1,0l-6-3.7l0,0l-0.2-0.1
		c-1.4-0.8-3.1-0.9-4.5-0.1l-4.1,2.3l-9.3,5.3l-23-13V18v-0.9c0-1.2-0.6-2.2-1.4-2.8l-0.7-0.4l0,0l-1.7-1l-0.3-0.2
		c-1-0.5-2.2-0.6-3.3,0.1l-1.5,0.9L5.1,96.4l0,13.4v5.2c0,0,0,0,0,0v18.5c0,0,0,0,0,0v104.5c0,0,0,0,0,0v18.5c0,0,0,0,0,0v17.5
		c2,13.9,19.8,22.7,46.6,28.6c1,0.2,2,0.3,3.1,0.3v0.1c2,13.8,19.8,22.7,46.6,28.6c2.1,0.5,4.2,0.3,6.2-0.3v0.6
		c2,13.8,19.8,22.7,46.6,28.6c3,0.7,6.1,0.2,8.7-1.4l147.9-85.4c1.1-0.6,1.7-1.8,1.7-3L312.4,100.9z M309.6,97.6
		C309.6,97.6,309.5,97.6,309.6,97.6C309.5,97.6,309.6,97.6,309.6,97.6z M308.8,97.5c0,0-0.1,0-0.1,0
		C308.8,97.5,308.8,97.5,308.8,97.5z M308,97.6c0,0-0.1,0-0.1,0C308,97.7,308,97.7,308,97.6z"/>
	<g>
		<path class="st1" d="M164.9,182.4c0,1.2-0.6,2.4-1.7,3L7.5,275v-2.6l0-169.3c0-3.5,1.8-6.7,4.9-8.4l143.6-78.6l3.8-2.2
			c0.7-0.4,1.4-0.5,2.1-0.4c0.3,0,0.6,0.1,0.9,0.2l0,0l0.7,0.4c0.8,0.6,1.4,1.6,1.4,2.8v0.9V182.4z"/>
		<path class="st2" d="M8.3,111.3l144.4-83.4c0.9-0.5,2-0.5,2.9,0L191.2,48L45.3,132.2L8.3,111.3"/>
		<path class="st3" d="M207.8,39.9c-0.9-0.4-2-0.4-3,0.2l-13.7,7.9l-28.6,16.5l-102.2,59c-2.6,1.5-5.7,2-8.6,1.5
			c-17.5-3.3-30.2-8.9-38.3-16.7c-3.5-3.4-6.2-7.2-7.9-11.4c-0.1-0.2-0.2-0.4-0.2-0.6c0,0,0,0,0-0.1c0,0,0,0,0,0l4.9,0.5
			c-0.6,0.6-1.1,1.4-0.9,2.1c0.2,0.7,5.1,5.3,7.7,7.5c14.5,11.9,30.7,14.3,36.8,14.7c1.6,0.1,3.2-0.2,4.5-1l104.3-59.4l25.4-14.5
			l9.3-5.3l4.1-2.3c1.4-0.8,3.1-0.8,4.5,0.1L207.8,39.9z"/>
		<path class="st3" d="M162.7,13.7c-0.3-0.1-0.6-0.2-0.9-0.2c-0.7-0.1-1.4,0-2.1,0.4l-3.8,2.2L12.6,94.6c-3.2,1.8-5.1,5.2-5.1,8.9
			l0,168.9l-2.3,1.3l0-177.5l150.8-82.7l1.5-0.9c1.1-0.6,2.3-0.6,3.3-0.1l0.3,0.2L162.7,13.7z"/>
		<linearGradient id="SVGID_1_" gradientUnits="userSpaceOnUse" x1="5.174" y1="171.0699" x2="57.9044" y2="171.0699">
			<stop  offset="4.422950e-03" style="stop-color:#FFD402"/>
			<stop  offset="0.5313" style="stop-color:#FED302"/>
			<stop  offset="0.7211" style="stop-color:#F7CD02"/>
			<stop  offset="0.8564" style="stop-color:#EBC303"/>
			<stop  offset="0.965" style="stop-color:#DAB605"/>
			<stop  offset="1" style="stop-color:#D3B006"/>
		</linearGradient>
		<path class="st4" d="M210.1,212.5c0,1.2-0.7,2.4-1.7,3L60.5,300.9c-2.6,1.5-5.7,2-8.7,1.4c-26.8-5.9-44.6-14.7-46.6-28.6V96.2
			c0,0,0,0,0,0c0,0,0,0,0,0.1c0.1,0.2,0.2,0.4,0.2,0.6c0.3,0.8,0.7,1.6,1.1,2.4c6.5,12.7,21.6,21.2,45.2,25.7c3,0.6,6,0,8.6-1.5
			L204.8,40c0.9-0.6,2-0.6,2.9-0.3l1.2,0.7c0.7,0.6,1.1,1.5,1.1,2.5L210.1,212.5z"/>
		<path class="st3" d="M51.9,266.3v18.5c-0.1,0-0.1,0-0.2,0C24.9,278.9,7.2,270,5.2,256.2v-18.5c2,13.8,19.8,22.7,46.6,28.6
			C51.8,266.3,51.9,266.3,51.9,266.3z"/>
		<path class="st3" d="M51.9,143.4v18.5c-0.1,0-0.1,0-0.2,0c-26.8-5.9-44.6-14.7-46.6-28.6v-18.5c2,13.8,19.8,22.7,46.6,28.6
			C51.8,143.4,51.9,143.4,51.9,143.4z"/>
		<line class="st5" x1="61.3" y1="130.2" x2="61.3" y2="292"/>
		<g>
			<path class="st6" d="M40,104.4c6-3.7,12-7.3,18.1-10.9l18.2-10.7l18.4-10.5l9.2-5.2c3.1-1.7,6.2-3.4,9.3-5.1c-3,1.9-6,3.7-9,5.5
				L95.1,73L76.9,83.7L58.5,94.2C52.4,97.6,46.2,101,40,104.4z"/>
		</g>
		<g>
			<path class="st6" d="M90.5,80.4c4.4-2.8,9-5.5,13.5-8.2c4.5-2.7,9.1-5.3,13.6-8c4.6-2.6,9.1-5.2,13.7-7.8l6.9-3.8
				c2.3-1.2,4.6-2.5,7-3.7c-2.2,1.4-4.5,2.8-6.7,4.2l-6.8,4.1c-4.5,2.7-9.1,5.3-13.6,8c-4.6,2.6-9.1,5.2-13.7,7.8
				C99.8,75.4,95.2,78,90.5,80.4z"/>
		</g>
		<g>
			<path class="st6" d="M49,118.3c2.5-1.7,5.1-3.3,7.7-4.9c2.6-1.6,5.2-3.1,7.8-4.6c2.6-1.5,5.2-3,7.9-4.4l4-2.1
				c1.4-0.7,2.7-1.4,4-2.1c-1.3,0.9-2.5,1.7-3.8,2.5l-3.9,2.4c-2.6,1.6-5.2,3.1-7.8,4.6c-2.6,1.5-5.2,3-7.9,4.4
				C54.4,115.6,51.7,117,49,118.3z"/>
		</g>
		<line class="st7" x1="207.7" y1="39.8" x2="203.8" y2="37.4"/>
		<line class="st7" x1="209.1" y1="40.6" x2="208.9" y2="40.5"/>
	</g>
	<g>
		<path class="st1" d="M214.5,211.3c0,1.2-0.6,2.4-1.7,3L57.2,303.9v-2.6l0-169.3c0-3.5,1.8-6.7,4.9-8.4l143.6-78.6l3.8-2.2
			c0.7-0.4,1.4-0.5,2.1-0.4c0.3,0,0.6,0.1,0.9,0.2l0,0l0.7,0.4c0.8,0.6,1.4,1.6,1.4,2.8v0.9V211.3z"/>
		<path class="st2" d="M57.9,140.2l144.4-83.4c0.9-0.5,2-0.5,2.9,0l35.6,20.1L94.9,161.1L57.9,140.2"/>
		<path class="st3" d="M257.5,68.7c-0.9-0.4-2-0.4-3,0.2l-13.7,7.9l-28.6,16.5l-102.2,59c-2.6,1.5-5.7,2-8.6,1.5
			c-17.5-3.3-30.2-8.9-38.3-16.7c-3.5-3.4-6.2-7.2-7.9-11.4c-0.1-0.2-0.2-0.4-0.2-0.6c0,0,0,0,0-0.1c0,0,0,0,0,0l4.9,0.5
			c-0.6,0.6-1.1,1.4-0.9,2.1c0.2,0.7,5.1,5.3,7.7,7.5c15.2,12.4,32.2,14.5,37.6,14.8c1.1,0.1,2.2-0.2,3.2-0.8l104.9-59.7L237.6,75
			l9.3-5.3l4.1-2.3c1.4-0.8,3.1-0.8,4.5,0.1L257.5,68.7z"/>
		<path class="st3" d="M212.4,42.7c-0.3-0.1-0.6-0.2-0.9-0.2c-0.7-0.1-1.4,0-2.1,0.4l-3.8,2.2L62.3,123.5c-3.2,1.8-5.1,5.2-5.1,8.9
			l0,168.9l-2.3,1.3l0-177.5l150.8-82.7l1.5-0.9c1.1-0.6,2.3-0.6,3.3-0.1l0.3,0.2L212.4,42.7z"/>
		<linearGradient id="SVGID_2_" gradientUnits="userSpaceOnUse" x1="54.8064" y1="199.9741" x2="107.5368" y2="199.9741">
			<stop  offset="4.422950e-03" style="stop-color:#FFD402"/>
			<stop  offset="0.5313" style="stop-color:#FED302"/>
			<stop  offset="0.7211" style="stop-color:#F7CD02"/>
			<stop  offset="0.8564" style="stop-color:#EBC303"/>
			<stop  offset="0.965" style="stop-color:#DAB605"/>
			<stop  offset="1" style="stop-color:#D3B006"/>
		</linearGradient>
		<path class="st8" d="M259.7,241.4c0,1.2-0.7,2.4-1.7,3l-147.9,85.4c-2.6,1.5-5.7,2-8.7,1.4c-26.8-5.9-44.6-14.7-46.6-28.6V131.1
			v-2.6v-1V126v-0.8v-0.1v-0.1c0,0,0,0,0,0c0,0,0,0,0,0.1c0.1,0.2,0.1,0.4,0.2,0.6c1,2.5,2.4,4.8,4,7c7.6,10.1,21.7,17.2,42.3,21.1
			c3,0.6,6,0,8.6-1.5L254.5,69c2.3-1.3,5.1,0.3,5.1,3L259.7,241.4z"/>
		<path class="st3" d="M101.6,295.3v18.5c-0.1,0-0.1,0-0.2,0c-26.8-5.9-44.6-14.7-46.6-28.6v-18.5c2,13.8,19.8,22.7,46.6,28.6
			C101.4,295.2,101.5,295.2,101.6,295.3z"/>
		<path class="st3" d="M101.6,172.3v18.5c-0.1,0-0.1,0-0.2,0c-26.8-5.9-44.6-14.7-46.6-28.6v-18.5c2,13.8,19.8,22.7,46.6,28.6
			C101.4,172.3,101.5,172.3,101.6,172.3z"/>
		<line class="st5" x1="111" y1="159.1" x2="111" y2="320.9"/>
		<g>
			<path class="st6" d="M89.7,133.3c6-3.7,12-7.3,18.1-10.9l18.2-10.7l18.4-10.5l9.2-5.2c3.1-1.7,6.2-3.4,9.3-5.1
				c-3,1.9-6,3.7-9,5.5l-9.1,5.4l-18.2,10.7l-18.4,10.5C102,126.5,95.9,129.9,89.7,133.3z"/>
		</g>
		<g>
			<path class="st6" d="M140.1,109.3c4.4-2.8,9-5.5,13.5-8.2c4.5-2.7,9.1-5.3,13.6-8c4.6-2.6,9.1-5.2,13.7-7.8l6.9-3.8
				c2.3-1.2,4.6-2.5,7-3.7c-2.2,1.4-4.5,2.8-6.7,4.2l-6.8,4.1c-4.5,2.7-9.1,5.3-13.6,8c-4.6,2.6-9.1,5.2-13.7,7.8
				C149.4,104.3,144.8,106.9,140.1,109.3z"/>
		</g>
		<g>
			<path class="st6" d="M98.6,147.3c2.5-1.7,5.1-3.3,7.7-4.9c2.6-1.6,5.2-3.1,7.8-4.6c2.6-1.5,5.2-3,7.9-4.4l4-2.1
				c1.4-0.7,2.7-1.4,4-2.1c-1.3,0.9-2.5,1.7-3.8,2.5l-3.9,2.4c-2.6,1.6-5.2,3.1-7.8,4.6c-2.6,1.5-5.2,3-7.9,4.4
				C104,144.5,101.3,145.9,98.6,147.3z"/>
		</g>
		<g>
			<path class="st6" d="M104,138.8c3.9-2.5,7.8-4.8,11.7-7.2c3.9-2.4,7.9-4.6,11.8-7c4-2.3,7.9-4.5,11.9-6.8l6-3.3
				c2-1.1,4-2.2,6.1-3.2c-1.9,1.2-3.9,2.4-5.8,3.6l-5.9,3.5c-3.9,2.4-7.9,4.6-11.8,7c-4,2.2-7.9,4.5-11.9,6.8
				C112.1,134.5,108.1,136.7,104,138.8z"/>
		</g>
	</g>
	<path class="st1" d="M267.3,240.1c0,1.2-0.6,2.4-1.7,3L110,332.8v-2.6l0-169.3c0-3.5,1.8-6.7,4.9-8.4l143.6-78.6l3.8-2.2
		c0.7-0.4,1.4-0.5,2.1-0.4c0.3,0,0.6,0.1,0.9,0.2l0,0l0.7,0.4c0.8,0.6,1.4,1.6,1.4,2.8v0.9V240.1z"/>
	<path class="st2" d="M110.7,169l144.4-83.4c0.9-0.5,2-0.5,2.9,0l35.6,20.1l-145.9,84.2L110.7,169"/>
	<path class="st3" d="M310.3,97.6c-0.9-0.4-2-0.4-3,0.2l-13.7,7.9L265,122.2l-102.2,59c-2.6,1.5-5.7,2-8.6,1.5
		c-17.5-3.3-30.2-8.9-38.3-16.7c-3.5-3.4-6.2-7.2-7.9-11.4c-0.1-0.2-0.2-0.4-0.2-0.6c0,0,0,0,0-0.1c0,0,0,0,0,0l4.9,0.5
		c-0.6,0.6-1.1,1.4-0.9,2.1s5.1,5.3,7.7,7.5c15.2,12.4,32.1,14.5,37.6,14.8c1.1,0.1,2.3-0.2,3.2-0.8L265,118.4l25.4-14.5l9.3-5.3
		l4.1-2.3c1.4-0.8,3.1-0.8,4.5,0.1L310.3,97.6z"/>
	<path class="st3" d="M265.2,71.5c-0.3-0.1-0.6-0.2-0.9-0.2c-0.7-0.1-1.4,0-2.1,0.4l-3.8,2.2l-143.3,78.4c-3.2,1.8-5.1,5.2-5.1,8.9
		l0,168.9l-2.3,1.3l0-177.5l150.8-82.7l1.5-0.9c1.1-0.6,2.3-0.6,3.3-0.1l0.3,0.2L265.2,71.5z"/>
	<radialGradient id="SVGID_3_" cx="292.9612" cy="154.8684" r="166.1331" gradientUnits="userSpaceOnUse">
		<stop  offset="0" style="stop-color:#FFE485"/>
		<stop  offset="0.2184" style="stop-color:#FFE176"/>
		<stop  offset="0.6305" style="stop-color:#FFDA4C"/>
		<stop  offset="1" style="stop-color:#FFD402"/>
	</radialGradient>
	<path class="st9" d="M312.5,270.3c0,1.2-0.7,2.4-1.7,3l-147.9,85.4c-2.6,1.5-5.7,2-8.7,1.4c-26.8-5.9-44.6-14.7-46.6-28.6V154.1
		V154V154c0,0,0,0,0,0c0,0,0,0,0,0.1c0.1,0.2,0.1,0.4,0.2,0.6c1.1,2.6,2.5,5,4.2,7.3c7.6,10,21.7,16.9,42.1,20.8c3,0.6,6,0,8.6-1.5
		l144.5-83.4c2.3-1.3,5.1,0.3,5.1,3L312.5,270.3z"/>
	<path class="st3" d="M154.4,324.1v18.5c-0.1,0-0.1,0-0.2,0c-26.8-5.9-44.6-14.7-46.6-28.6v-18.5c2,13.8,19.8,22.7,46.6,28.6
		C154.2,324.1,154.3,324.1,154.4,324.1z"/>
	<path class="st3" d="M154.4,201.2v18.5c-0.1,0-0.1,0-0.2,0c-26.8-5.9-44.6-14.7-46.6-28.6v-18.5c2,13.8,19.8,22.7,46.6,28.6
		C154.2,201.2,154.3,201.2,154.4,201.2z"/>
	<line class="st5" x1="163.8" y1="187.9" x2="163.8" y2="349.8"/>
	<g>
		<path class="st6" d="M142.5,162.2c6-3.7,12-7.3,18.1-10.9l18.2-10.7l18.4-10.5l9.2-5.2c3.1-1.7,6.2-3.4,9.3-5.1
			c-3,1.9-6,3.7-9,5.5l-9.1,5.4l-18.2,10.7L161,151.9C154.8,155.4,148.7,158.8,142.5,162.2z"/>
	</g>
	<g>
		<path class="st6" d="M192.9,138.2c4.4-2.8,9-5.5,13.5-8.2c4.5-2.7,9.1-5.3,13.6-8c4.6-2.6,9.1-5.2,13.7-7.8l6.9-3.8
			c2.3-1.2,4.6-2.5,7-3.7c-2.2,1.4-4.5,2.8-6.7,4.2l-6.8,4.1c-4.5,2.7-9.1,5.3-13.6,8c-4.6,2.6-9.1,5.2-13.7,7.8
			C202.2,133.2,197.6,135.7,192.9,138.2z"/>
	</g>
	<g>
		<path class="st6" d="M208.7,142.5c4.4-2.8,9-5.5,13.5-8.2c4.5-2.7,9.1-5.3,13.6-8c4.6-2.6,9.1-5.2,13.7-7.8l6.9-3.8
			c2.3-1.2,4.6-2.5,7-3.7c-2.2,1.4-4.5,2.8-6.7,4.2l-6.8,4.1c-4.5,2.7-9.1,5.3-13.6,8c-4.6,2.6-9.1,5.2-13.7,7.8
			C218,137.5,213.4,140,208.7,142.5z"/>
	</g>
	<g>
		<path class="st6" d="M151.4,176.1c2.5-1.7,5.1-3.3,7.7-4.9c2.6-1.6,5.2-3.1,7.8-4.6c2.6-1.5,5.2-3,7.9-4.4l4-2.1
			c1.4-0.7,2.7-1.4,4-2.1c-1.3,0.9-2.5,1.7-3.8,2.5l-3.9,2.4c-2.6,1.6-5.2,3.1-7.8,4.6c-2.6,1.5-5.2,3-7.9,4.4
			C156.8,173.4,154.1,174.8,151.4,176.1z"/>
	</g>
	<path class="st10" d="M262.7,175.4l3.2-8.3c0.3-0.8,1.3-0.9,1.8-0.2l2.3,3.3c0.3,0.5,1.1,0.3,1.1-0.4v-51.1l-3.5-1.9l-9.7,5.5
		l3.4,2l0.2,50.8C261.5,175.9,262.4,176,262.7,175.4z"/>
	<path class="st10" d="M106.4,137.3l39.3-22.9l-24.9-11.1c-1.3-0.5-2.8,0.2-3.3,1.5L106.4,137.3z"/>
	<path class="st6" d="M138.3,118.7l-0.3,0.2c-2.9-0.9-5.7-2-8.5-3.1c-3.3-1.3-6.6-2.7-9.7-4.4c3.5,1,6.8,2.2,10.1,3.5
		C132.7,116.1,135.5,117.3,138.3,118.7z"/>
	<path class="st6" d="M135.2,120.5l-0.7,0.4c-2.1-0.7-4.1-1.5-6.2-2.3c-3.3-1.3-6.6-2.7-9.7-4.4c3.4,1,6.8,2.2,10.1,3.5
		C130.9,118.6,133,119.5,135.2,120.5z"/>
	<path class="st6" d="M130.4,123.4l-0.9,0.6c-0.9-0.4-1.9-0.7-2.8-1.1c-3.3-1.3-6.6-2.7-9.7-4.4c3.4,1,6.8,2.2,10.1,3.5
		C128.1,122.4,129.3,122.9,130.4,123.4z"/>
	<path class="st6" d="M118.6,130.4l-0.9,0.5c-1.7-0.7-3.3-1.5-4.9-2.4C114.8,129.1,116.7,129.7,118.6,130.4z"/>
	<g>
		<radialGradient id="SVGID_4_" cx="147.4642" cy="28.0814" r="23.8009" gradientUnits="userSpaceOnUse">
			<stop  offset="5.114678e-07" style="stop-color:#75529A"/>
			<stop  offset="0.2642" style="stop-color:#6E4894"/>
			<stop  offset="0.7414" style="stop-color:#5A3287"/>
			<stop  offset="0.9956" style="stop-color:#4F2680"/>
		</radialGradient>
		<path class="st11" d="M149.1,55l-27.8,16.1V41.2c0-1.8,1-3.5,2.6-4.3l21.6-11.6c1.7-0.9,3.7,0.3,3.7,2.2V55z"/>
		<g>
			<g>
				<g class="st12">
					<defs>
						<polygon id="SVGID_5_" class="st12" points="126.7,61.8 126.6,41.6 144.3,31.4 144.3,51.7 						"/>
					</defs>
					<clipPath id="SVGID_6_">
						<use xlink:href="#SVGID_5_"  style="overflow:visible;"/>
					</clipPath>
					<g class="st13">
						<g>
							<g>
								<g>
									<path class="st14" d="M135.4,36.5c-4.9,2.8-8.8,9.6-8.8,15.2c0,5.6,4,7.8,8.8,5c4.9-2.8,8.8-9.6,8.8-15.2
										C144.3,35.9,140.3,33.7,135.4,36.5"/>
								</g>
							</g>
						</g>
					</g>
				</g>
			</g>
		</g>
		<g>
			<g>
				<g class="st12">
					<defs>
						<polygon id="SVGID_7_" class="st12" points="129.1,57.6 129.1,43 141.8,35.7 141.8,50.2 						"/>
					</defs>
					<clipPath id="SVGID_8_">
						<use xlink:href="#SVGID_7_"  style="overflow:visible;"/>
					</clipPath>
					<g class="st15">
						<g>
							<g>
								<g>
									<path class="st16" d="M135.4,39.3c-3.5,2-6.3,6.9-6.3,11c0,4,2.9,5.7,6.4,3.6c3.5-2,6.3-6.9,6.3-11
										C141.8,38.9,138.9,37.3,135.4,39.3"/>
								</g>
							</g>
						</g>
					</g>
				</g>
			</g>
		</g>
	</g>
	<path class="st3" d="M249.1,68.5l3.5-2c1.3-0.7,2.8-0.7,4,0l7.6,4.4l-5.9,0.7L249.1,68.5z"/>
	<polygon class="st3" points="212,42.4 206,38.7 209.3,41.9 	"/>
	<path class="st10" d="M5.2,98.6c0,0-0.4-2.2,1.2-3.1l-0.1-1.3l-1.7,0.5l-1.8,3.9l-0.4,4.8l2.9,15.9L5.2,98.6z"/>
	<polygon class="st7" points="66.8,264.5 67,197.4 82.9,206.6 82.7,273.7 	"/>
	<polyline class="st17" points="67.2,246.6 67.2,252.7 73.8,259.5 67.2,258.6 67.2,264.7 82.3,266.7 82.4,262.2 67.2,246.6 	"/>
	<path class="st17" d="M74.8,245.3c-0.9-0.5-1.6-1.3-2.2-2.4c-0.6-1.1-0.9-2.1-0.9-3.1s0.3-1.7,0.9-2c0.6-0.4,1.4-0.3,2.3,0.2
		c0.9,0.5,1.6,1.3,2.3,2.4c0.6,1.1,0.9,2.1,0.9,3.1c0,1-0.3,1.7-1,2C76.4,245.9,75.7,245.9,74.8,245.3 M74.9,232.6
		c-2.2-1.3-4.1-1.5-5.6-0.6c-1.6,0.9-2.3,2.6-2.3,5.2c0,2.5,0.8,5.1,2.3,7.8c1.6,2.7,3.5,4.6,5.7,5.9c2.1,1.2,4,1.4,5.5,0.5
		c1.6-0.9,2.3-2.6,2.3-5.1c0-2.5-0.8-5.1-2.3-7.8C78.9,235.8,77,233.8,74.9,232.6"/>
	<polyline class="st17" points="82.5,224.9 78.5,222.6 78.5,227.4 67.3,221 67.3,226.7 82.4,235.4 82.5,224.9 	"/>
	<polyline class="st17" points="82.5,218.4 78.7,216.2 78.7,221.8 82.5,224 82.5,218.4 	"/>
	<path class="st17" d="M78.4,204l0,3.3l-0.4-0.5c-1.5-1.9-2.7-3.3-3.6-4.2c-0.9-0.9-1.7-1.6-2.5-2.1c-1-0.6-1.9-0.8-2.7-0.6
		c-0.8,0.2-1.4,0.6-1.7,1.4c-0.3,0.8-0.5,1.9-0.5,3.3c0,0.8,0.1,1.7,0.2,2.6l4.2,2.4l0-1c0-1.4,0.5-1.9,1.5-1.3
		c0.5,0.3,1.3,1,2.2,2.2l7.2,8.6l0-10.2L78.4,204"/>
	<polygon class="st7" points="16.1,235.1 16.3,171.8 32.2,181 32,244.3 	"/>
	<polyline class="st17" points="16.5,217.2 16.5,223.3 23.1,230.1 16.5,229.2 16.5,235.3 31.6,237.2 31.6,232.7 16.5,217.2 	"/>
	<path class="st17" d="M24.1,215.9c-0.9-0.5-1.6-1.3-2.2-2.4c-0.6-1.1-0.9-2.1-0.9-3.1c0-1,0.3-1.7,0.9-2c0.6-0.4,1.4-0.3,2.3,0.2
		c0.9,0.5,1.6,1.3,2.3,2.4c0.6,1.1,0.9,2.1,0.9,3.1c0,1-0.3,1.7-1,2C25.7,216.5,25,216.4,24.1,215.9 M24.1,203.1
		c-2.2-1.3-4.1-1.5-5.6-0.6c-1.5,0.9-2.3,2.6-2.3,5.2c0,2.5,0.8,5.1,2.3,7.8c1.6,2.7,3.5,4.6,5.7,5.9c2.1,1.2,4,1.4,5.5,0.5
		c1.6-0.9,2.3-2.6,2.3-5.1c0-2.5-0.8-5.1-2.3-7.8C28.2,206.4,26.3,204.4,24.1,203.1"/>
	<polyline class="st17" points="31.7,195.4 27.8,193.1 27.8,198 16.6,191.5 16.6,197.3 31.7,206 31.7,195.4 	"/>
	<polyline class="st17" points="31.8,189 28,186.8 27.9,192.4 31.7,194.5 31.8,189 	"/>
	<polyline class="st17" points="31.8,180.8 16.6,172.1 16.6,176.2 19.9,181.8 22.5,181 31.8,186.4 31.8,180.8 	"/>
	<polygon class="st7" points="121.3,295.9 121.5,230.2 137.4,239.4 137.2,305.1 	"/>
	<polyline class="st17" points="121.7,278 121.7,284.1 128.3,290.9 121.7,290 121.7,296.1 136.8,298.1 136.8,293.6 121.7,278 	"/>
	<path class="st17" d="M129.3,276.7c-0.9-0.5-1.6-1.3-2.2-2.4c-0.6-1.1-0.9-2.1-0.9-3.1c0-1,0.3-1.7,0.9-2c0.6-0.4,1.4-0.3,2.3,0.2
		c0.9,0.5,1.6,1.3,2.3,2.4c0.6,1.1,0.9,2.1,0.9,3.1c0,1-0.3,1.7-1,2C130.9,277.3,130.2,277.2,129.3,276.7 M129.3,264
		c-2.2-1.3-4.1-1.5-5.6-0.6c-1.6,0.9-2.3,2.6-2.3,5.2c0,2.5,0.8,5.1,2.3,7.8c1.6,2.7,3.5,4.6,5.7,5.9c2.1,1.2,4,1.4,5.5,0.5
		c1.6-0.9,2.3-2.6,2.3-5.1c0-2.5-0.8-5.1-2.3-7.8C133.4,267.2,131.5,265.2,129.3,264"/>
	<polyline class="st17" points="136.9,256.2 133,254 133,258.8 121.8,252.3 121.8,258.1 136.9,266.8 136.9,256.2 	"/>
	<polyline class="st17" points="137,249.8 133.2,247.6 133.2,253.2 136.9,255.4 137,249.8 	"/>
	<path class="st17" d="M131.6,236.1c-0.8-0.5-1.5-0.7-2.1-0.8c-0.6,0-1.2,0.1-1.9,0.5c-0.8-1.2-1.7-2.1-2.6-2.6
		c-1.1-0.6-1.9-0.7-2.5-0.1c-0.6,0.6-0.9,1.7-0.9,3.4c0,0.9,0.1,1.8,0.2,2.8l3.3,1.9l0-0.1c0-1.2,0.4-1.6,1.1-1.2
		c0.6,0.4,1.4,1.4,2.2,3.2c0.1-0.1,0.1-0.1,0.1-0.1c0.3-0.3,0.4-0.4,0.5-0.5c0.2-0.2,0.4-0.3,0.6-0.5c0.6-0.3,1.1-0.3,1.6,0
		c1.1,0.6,1.6,2.1,1.6,4.4l0,0.1l4.2,2.5c0-0.4,0-0.9,0-1.4c0-1.5-0.1-2.9-0.4-4.2c-0.1-0.7-0.4-1.4-0.7-2.2
		C135.1,238.9,133.6,237.2,131.6,236.1"/>
	<g>
		<polygon class="st18" points="293.2,202.1 293.2,202.1 293.2,202.1 		"/>
		<linearGradient id="SVGID_9_" gradientUnits="userSpaceOnUse" x1="290.2741" y1="194.1824" x2="284.1982" y2="204.4561">
			<stop  offset="0" style="stop-color:#EFC304"/>
			<stop  offset="0.8349" style="stop-color:#FDD102"/>
			<stop  offset="1" style="stop-color:#FFD402"/>
		</linearGradient>
		<path class="st19" d="M295.7,196.2c0.1-0.4,0.1-0.9,0.1-1.3c0-1.2-0.2-2.2-0.7-2.9c-0.3-0.4-0.7-0.8-1.1-1l-7-4.1
			c1.2,0.7,1.8,2,1.8,4c0,0.5,0,0.9-0.1,1.4c0,0.1,0,0.1,0,0.2c-0.1,0.4-0.2,0.9-0.3,1.3c0,0,0,0.1,0,0.1c-0.1,0.5-0.3,1-0.5,1.4
			c0,0,0,0,0,0c-0.2,0.5-0.5,1-0.8,1.5c-0.3,0.5-0.6,1-0.9,1.4c0,0-0.1,0.1-0.1,0.1c-0.3,0.4-0.6,0.7-0.9,1.1
			c-0.1,0.1-0.1,0.1-0.2,0.2c-0.2,0.3-0.5,0.5-0.8,0.7c-0.1,0.1-0.2,0.2-0.4,0.3c-0.4,0.3-0.8,0.6-1.2,0.8c-0.3,0.2-0.6,0.3-0.8,0.4
			c-0.1,0-0.2,0.1-0.2,0.1c-0.1,0.1-0.3,0.1-0.4,0.1c-0.1,0-0.2,0.1-0.3,0.1c-0.1,0-0.1,0-0.2,0c-0.1,0-0.2,0-0.3,0.1
			c-0.1,0-0.1,0-0.2,0c-0.1,0-0.3,0-0.4,0c0,0,0,0-0.1,0c-0.2,0-0.3,0-0.4-0.1c0,0-0.1,0-0.1,0c-0.1,0-0.2-0.1-0.4-0.1
			c0,0-0.1,0-0.1,0c-0.1-0.1-0.3-0.1-0.4-0.2l7,4.1c0,0,0,0,0.1,0c0.1,0.1,0.2,0.1,0.3,0.2c0,0,0,0,0,0c0,0,0.1,0,0.1,0
			c0.1,0,0.1,0.1,0.2,0.1c0,0,0.1,0,0.1,0c0,0,0.1,0,0.1,0c0,0,0.1,0,0.1,0c0.1,0,0.2,0,0.3,0c0,0,0,0,0,0c0,0,0,0,0.1,0
			c0.1,0,0.2,0,0.3,0c0,0,0.1,0,0.1,0c0.1,0,0.1,0,0.2,0c0,0,0.1,0,0.1,0c0.1,0,0.1,0,0.2,0c0.1,0,0.1,0,0.2,0c0,0,0.1,0,0.1,0
			c0.1,0,0.1,0,0.2-0.1c0.1,0,0.3-0.1,0.4-0.1c0,0,0.1,0,0.1,0c0,0,0.1,0,0.1-0.1c0.3-0.1,0.5-0.2,0.8-0.4c0.4-0.2,0.8-0.5,1.2-0.8
			c0.1-0.1,0.2-0.2,0.4-0.3c0.2-0.2,0.4-0.3,0.6-0.5c0.1-0.1,0.1-0.1,0.2-0.2c0.1-0.1,0.1-0.1,0.2-0.2c0.1-0.1,0.2-0.2,0.3-0.3
			c0.2-0.2,0.3-0.4,0.5-0.6c0.1-0.1,0.1-0.1,0.2-0.2c0,0,0.1-0.1,0.1-0.1c0.1-0.1,0.1-0.1,0.2-0.2l0,0l0,0l0,0
			c0.1-0.2,0.2-0.4,0.4-0.5c0.1-0.2,0.2-0.4,0.3-0.6c0,0,0,0,0,0c0.1-0.2,0.2-0.4,0.3-0.5c0.1-0.2,0.2-0.4,0.3-0.5
			c0.1-0.1,0.1-0.3,0.2-0.4c0,0,0,0,0,0c0,0,0,0,0,0c0.1-0.2,0.1-0.3,0.2-0.5c0.1-0.2,0.1-0.4,0.2-0.5c0-0.1,0.1-0.2,0.1-0.3
			c0,0,0-0.1,0-0.1c0,0,0-0.1,0-0.1c0.1-0.2,0.1-0.4,0.2-0.7c0-0.2,0.1-0.4,0.1-0.5c0-0.1,0-0.1,0-0.2
			C295.6,196.3,295.7,196.3,295.7,196.2z"/>
		<path class="st7" d="M278.7,217.1l-7-4.1c-2.9-1.7-4.4-4.9-4.4-9.6c0-5,1.4-10,4.4-15.2c2.9-5.2,6.5-9,10.8-11.4
			c4.3-2.5,7.9-2.9,11-1.2l7,4.1c-3-1.7-6.7-1.3-11,1.2c-4.2,2.4-7.8,6.3-10.8,11.4c-2.9,5.2-4.4,10.3-4.4,15.2
			C274.3,212.2,275.8,215.4,278.7,217.1z"/>
		<linearGradient id="SVGID_10_" gradientUnits="userSpaceOnUse" x1="273.3539" y1="211.3015" x2="287.6016" y2="180.3763">
			<stop  offset="0" style="stop-color:#EFC304"/>
			<stop  offset="0.8349" style="stop-color:#FDD102"/>
			<stop  offset="1" style="stop-color:#FFD402"/>
		</linearGradient>
		<path class="st20" d="M293.3,175.6c-0.3-0.2-0.6-0.3-0.8-0.4c-0.3-0.1-0.6-0.2-0.8-0.3c-0.3-0.1-0.6-0.1-0.9-0.2
			c-0.3-0.1-0.6-0.1-0.9-0.1c-0.3,0-0.6,0-1,0c-0.4,0-0.7,0.1-1.1,0.1c-0.4,0.1-0.9,0.2-1.3,0.3c-0.6,0.2-1.2,0.4-1.8,0.6
			c-0.8,0.3-1.6,0.7-2.4,1.2c-1.8,1.1-3.5,2.4-5.1,3.9c-0.5,0.5-1,1.1-1.5,1.6c-0.4,0.4-0.8,0.9-1.1,1.4c-0.3,0.4-0.7,0.9-1,1.3
			c-0.3,0.4-0.6,0.9-0.9,1.3c-0.3,0.5-0.6,0.9-0.9,1.4c-0.1,0.1-0.2,0.3-0.3,0.4c-0.2,0.3-0.4,0.7-0.5,1c-0.2,0.5-0.5,0.9-0.7,1.4
			c-0.2,0.5-0.4,0.9-0.6,1.4c-0.2,0.5-0.4,0.9-0.6,1.4c-0.2,0.5-0.3,0.9-0.5,1.4c-0.2,0.5-0.3,1-0.5,1.5c-0.2,0.6-0.3,1.1-0.4,1.7
			c-0.2,0.7-0.3,1.5-0.4,2.2c-0.1,1.1-0.2,2.2-0.2,3.3c0,4.7,1.5,7.9,4.4,9.6l7,4.1c-2.9-1.7-4.4-4.9-4.4-9.6c0-1.1,0.1-2.2,0.2-3.3
			c0.1-0.7,0.2-1.5,0.4-2.2c0.1-0.6,0.3-1.1,0.4-1.7c0.1-0.5,0.3-1,0.5-1.5c0.2-0.5,0.3-0.9,0.5-1.4c0.2-0.4,0.4-0.9,0.6-1.4
			c0.2-0.4,0.4-0.9,0.6-1.4c0.2-0.5,0.5-0.9,0.7-1.4c0.2-0.3,0.4-0.7,0.5-1c0.1-0.2,0.2-0.3,0.3-0.4c0.3-0.5,0.6-0.9,0.9-1.4
			c0.3-0.5,0.6-0.9,0.9-1.3c0.3-0.5,0.6-0.9,1-1.3c0.4-0.5,0.8-0.9,1.1-1.4c0.5-0.6,1-1.1,1.5-1.6c1.6-1.6,3.3-2.9,5.1-3.9
			c0.8-0.5,1.6-0.9,2.4-1.2c0.6-0.3,1.2-0.5,1.8-0.6c0.4-0.1,0.9-0.2,1.3-0.3c0.4-0.1,0.7-0.1,1.1-0.1c0.3,0,0.6,0,1,0
			c0.3,0,0.6,0.1,0.9,0.1c0.3,0.1,0.6,0.1,0.9,0.2c0.3,0.1,0.6,0.2,0.8,0.3c0.3,0.1,0.6,0.3,0.8,0.4L293.3,175.6z"/>
		<g>
			<polygon class="st17" points="261.9,231.3 254.9,227.2 254.8,193.6 261.8,197.7 			"/>
		</g>
		<g>
			<polygon class="st1" points="261.8,197.7 254.8,193.6 264.7,187.8 271.7,191.9 			"/>
		</g>
		<g>
			<polygon class="st1" points="252.1,228.2 245.1,224.1 253.2,219.4 260.3,223.5 			"/>
		</g>
		<g>
			<polygon class="st17" points="242.5,242.5 235.5,238.4 235.4,204.8 242.4,208.9 			"/>
		</g>
		<g>
			<polygon class="st1" points="242.4,208.9 235.4,204.8 245,199.2 252.1,203.3 			"/>
		</g>
		<linearGradient id="SVGID_11_" gradientUnits="userSpaceOnUse" x1="225.2855" y1="231.7026" x2="219.2119" y2="241.9725">
			<stop  offset="0" style="stop-color:#EFC304"/>
			<stop  offset="0.8349" style="stop-color:#FDD102"/>
			<stop  offset="1" style="stop-color:#FFD402"/>
		</linearGradient>
		<path class="st21" d="M230.7,233.8c0.1-0.4,0.1-0.9,0.1-1.3c0-1.2-0.2-2.2-0.7-2.9c-0.3-0.4-0.7-0.8-1.1-1l-7-4.1
			c1.2,0.7,1.8,2,1.8,4c0,0.5,0,0.9-0.1,1.4c0,0.1,0,0.1,0,0.2c-0.1,0.4-0.2,0.9-0.3,1.3c0,0,0,0.1,0,0.1c-0.1,0.5-0.3,1-0.5,1.4
			c0,0,0,0,0,0c-0.2,0.5-0.5,1-0.8,1.5c-0.3,0.5-0.6,1-0.9,1.4c0,0-0.1,0.1-0.1,0.1c-0.3,0.4-0.6,0.7-0.9,1.1
			c-0.1,0.1-0.1,0.1-0.2,0.2c-0.2,0.3-0.5,0.5-0.8,0.7c-0.1,0.1-0.2,0.2-0.4,0.3c-0.4,0.3-0.8,0.6-1.2,0.8c-0.3,0.2-0.6,0.3-0.8,0.4
			c-0.1,0-0.1,0.1-0.2,0.1c-0.1,0.1-0.3,0.1-0.4,0.1c-0.1,0-0.2,0.1-0.2,0.1c-0.1,0-0.1,0-0.2,0c-0.1,0-0.2,0-0.3,0.1
			c-0.1,0-0.1,0-0.2,0c-0.1,0-0.3,0-0.4,0c0,0-0.1,0-0.1,0c-0.1,0-0.3,0-0.4-0.1c0,0-0.1,0-0.1,0c-0.1,0-0.2-0.1-0.3-0.1
			c0,0-0.1,0-0.1,0c-0.1-0.1-0.3-0.1-0.4-0.2l7,4.1c0,0,0,0,0,0c0.1,0.1,0.2,0.1,0.3,0.2c0,0,0,0,0.1,0c0,0,0.1,0,0.1,0
			c0.1,0,0.1,0,0.2,0.1c0.1,0,0.1,0,0.2,0c0,0,0.1,0,0.1,0c0,0,0,0,0.1,0c0.1,0,0.2,0,0.3,0c0,0,0,0,0,0c0,0,0.1,0,0.1,0
			c0.1,0,0.2,0,0.2,0c0,0,0.1,0,0.1,0c0.1,0,0.1,0,0.2,0c0,0,0.1,0,0.1,0c0.1,0,0.1,0,0.2,0c0.1,0,0.1,0,0.2,0c0,0,0.1,0,0.1,0
			c0.1,0,0.1,0,0.2-0.1c0.1,0,0.3-0.1,0.4-0.1c0,0,0.1,0,0.1,0c0,0,0.1,0,0.1-0.1c0.3-0.1,0.5-0.2,0.8-0.4c0.4-0.2,0.8-0.5,1.2-0.8
			c0.1-0.1,0.2-0.2,0.4-0.3c0.2-0.2,0.4-0.3,0.6-0.5c0.1-0.1,0.1-0.1,0.2-0.2c0.1-0.1,0.1-0.1,0.2-0.2c0.1-0.1,0.2-0.2,0.3-0.3
			c0.2-0.2,0.3-0.4,0.5-0.6c0.1-0.1,0.1-0.1,0.2-0.2c0,0,0.1-0.1,0.1-0.1c0.1-0.1,0.1-0.1,0.2-0.2c0.1-0.2,0.2-0.4,0.4-0.5
			c0.1-0.2,0.2-0.4,0.3-0.6c0,0,0,0,0,0c0.1-0.2,0.2-0.4,0.3-0.5c0.1-0.2,0.2-0.4,0.3-0.5c0.1-0.1,0.1-0.3,0.2-0.4c0,0,0,0,0,0
			c0,0,0,0,0,0c0.1-0.2,0.1-0.3,0.2-0.5c0.1-0.2,0.1-0.4,0.2-0.5c0-0.1,0.1-0.2,0.1-0.3c0,0,0-0.1,0-0.1c0,0,0-0.1,0-0.1
			c0.1-0.2,0.1-0.4,0.2-0.7c0-0.2,0.1-0.4,0.1-0.5c0-0.1,0-0.1,0-0.2C230.7,233.8,230.7,233.8,230.7,233.8z"/>
		<linearGradient id="SVGID_12_" gradientUnits="userSpaceOnUse" x1="208.3683" y1="248.8176" x2="222.6137" y2="217.8973">
			<stop  offset="0" style="stop-color:#EFC304"/>
			<stop  offset="0.8349" style="stop-color:#FDD102"/>
			<stop  offset="1" style="stop-color:#FFD402"/>
		</linearGradient>
		<path class="st22" d="M209.4,242.7c0-0.4,0.1-0.8,0.1-1.2c0.1-0.5,0.2-1.1,0.3-1.6c0-0.1,0-0.3,0.1-0.4c0-0.1,0.1-0.3,0.1-0.5
			c0.1-0.5,0.2-0.9,0.3-1.4c0-0.2,0.1-0.3,0.1-0.5c0.1-0.4,0.3-0.9,0.4-1.3c0.1-0.2,0.1-0.3,0.2-0.5c0.2-0.5,0.4-1,0.6-1.5
			c0-0.1,0.1-0.1,0.1-0.2c0.2-0.6,0.5-1.1,0.8-1.7c0.1-0.2,0.2-0.3,0.2-0.5c0.3-0.5,0.6-1.1,0.9-1.6c0.4-0.6,0.7-1.3,1.1-1.9
			c0,0,0-0.1,0.1-0.1c0.3-0.5,0.7-1,1-1.5c0.1-0.2,0.2-0.3,0.4-0.5c0.2-0.3,0.5-0.7,0.8-1c0.2-0.2,0.3-0.4,0.5-0.6
			c0.2-0.2,0.4-0.5,0.6-0.7c0.3-0.3,0.6-0.6,0.9-0.9c0.2-0.2,0.5-0.5,0.7-0.7c0.2-0.2,0.3-0.3,0.5-0.5c0.3-0.2,0.6-0.5,0.8-0.7
			c0.2-0.1,0.3-0.3,0.5-0.4c0.3-0.2,0.6-0.5,1-0.7c0.2-0.1,0.3-0.2,0.5-0.3c0.5-0.3,1-0.6,1.5-0.9c0.5-0.3,1-0.5,1.4-0.8
			c0.1-0.1,0.3-0.1,0.4-0.2c0.4-0.2,0.7-0.3,1.1-0.5c0.1,0,0.2-0.1,0.2-0.1c0.4-0.1,0.8-0.3,1.2-0.4c0.2,0,0.4-0.1,0.6-0.1
			c0.3-0.1,0.5-0.1,0.8-0.1c0.1,0,0.3,0,0.4,0c0.3,0,0.6,0,0.9,0c0.1,0,0.2,0,0.3,0c0.4,0,0.8,0.1,1.1,0.1c0.1,0,0.1,0,0.2,0.1
			c0.3,0.1,0.6,0.1,0.9,0.2c0.1,0,0.2,0.1,0.3,0.1c0.4,0.1,0.7,0.3,1,0.5l-7-4.1c-0.3-0.2-0.6-0.3-0.8-0.4c-0.1,0-0.1,0-0.2-0.1
			c-0.1,0-0.2-0.1-0.3-0.1c-0.1,0-0.2-0.1-0.3-0.1c-0.2-0.1-0.4-0.1-0.5-0.1c-0.1,0-0.1,0-0.2-0.1c0,0-0.1,0-0.1,0
			c-0.3-0.1-0.6-0.1-0.9-0.1c0,0-0.1,0-0.1,0c-0.1,0-0.2,0-0.3,0c-0.2,0-0.3,0-0.5,0c-0.1,0-0.3,0-0.4,0c-0.1,0-0.3,0-0.4,0
			c-0.1,0-0.2,0-0.3,0c-0.2,0-0.4,0.1-0.5,0.1c-0.2,0-0.4,0.1-0.6,0.1c-0.1,0-0.1,0-0.2,0c-0.3,0.1-0.7,0.2-1,0.3
			c-0.1,0-0.2,0.1-0.2,0.1c-0.2,0.1-0.4,0.1-0.5,0.2c-0.2,0.1-0.4,0.2-0.6,0.3c-0.1,0.1-0.3,0.1-0.4,0.2c-0.5,0.2-0.9,0.5-1.4,0.8
			c-0.5,0.3-1,0.6-1.5,0.9c-0.2,0.1-0.3,0.2-0.5,0.3c-0.3,0.2-0.6,0.5-0.9,0.7c-0.2,0.1-0.4,0.3-0.5,0.4c-0.3,0.2-0.6,0.5-0.8,0.7
			c-0.2,0.2-0.4,0.3-0.5,0.5c-0.1,0.1-0.2,0.2-0.4,0.3c-0.1,0.1-0.2,0.2-0.3,0.3c-0.3,0.3-0.6,0.6-0.9,0.9c-0.1,0.1-0.2,0.2-0.3,0.4
			c-0.1,0.1-0.2,0.2-0.3,0.4c-0.2,0.2-0.3,0.4-0.5,0.6c-0.1,0.1-0.2,0.3-0.3,0.4c-0.1,0.2-0.3,0.4-0.4,0.6c-0.1,0.2-0.2,0.3-0.4,0.5
			c-0.1,0.1-0.1,0.2-0.2,0.3c-0.3,0.4-0.6,0.8-0.8,1.2c0,0,0,0.1-0.1,0.1c0,0,0,0,0,0c-0.3,0.5-0.6,0.9-0.9,1.4
			c-0.1,0.1-0.2,0.3-0.3,0.4c-0.2,0.3-0.4,0.7-0.6,1c-0.1,0.2-0.2,0.4-0.3,0.6c-0.1,0.2-0.2,0.3-0.2,0.5c0,0.1-0.1,0.2-0.1,0.3
			c-0.2,0.5-0.4,0.9-0.6,1.4c0,0,0,0,0,0.1c0,0.1-0.1,0.1-0.1,0.2c-0.2,0.4-0.3,0.7-0.4,1.1c-0.1,0.1-0.1,0.3-0.2,0.4
			c-0.1,0.2-0.1,0.3-0.2,0.5c-0.1,0.2-0.1,0.3-0.2,0.5c-0.1,0.3-0.2,0.6-0.3,0.8c0,0.2-0.1,0.3-0.1,0.5c0,0.1,0,0.1-0.1,0.2
			c-0.1,0.4-0.2,0.8-0.3,1.2c0,0.2-0.1,0.3-0.1,0.5c0,0,0,0,0,0.1c0,0.1,0,0.2-0.1,0.4c-0.1,0.5-0.2,1.1-0.3,1.6c0,0.1,0,0.1,0,0.2
			c0,0.3-0.1,0.7-0.1,1c0,0.2,0,0.4-0.1,0.6c0,0.6-0.1,1.2-0.1,1.8c0,4.7,1.5,7.8,4.4,9.5l7,4.1c-2.9-1.7-4.4-4.9-4.4-9.5
			c0-0.6,0-1.2,0.1-1.8C209.4,243.1,209.4,242.9,209.4,242.7z"/>
		<g>
			<polygon class="st1" points="199.6,246.1 192.6,242.1 200.3,237.6 207.4,241.7 			"/>
		</g>
		<g>
			<polygon class="st17" points="190.4,272.6 183.3,268.5 183.2,234.9 190.3,239 			"/>
		</g>
		<g>
			<polygon class="st1" points="190.3,239 183.2,234.9 200.4,224.9 207.5,229 			"/>
		</g>
	</g>
	<g>
		<g>
			<path class="st16" d="M300.4,179.7c3,1.7,4.5,5,4.5,9.9c0,4.8-1.5,9.9-4.5,15c-3,5.2-6.6,9-10.8,11.4c-4.2,2.4-7.8,2.8-10.8,1.1
				c-3-1.7-4.5-4.9-4.6-9.6c0-5,1.4-10,4.4-15.2c2.9-5.2,6.5-9,10.8-11.4C293.7,178.4,297.4,178,300.4,179.7z M294,201
				c1.2-2.1,1.8-4.1,1.8-6c0-2-0.6-3.3-1.8-4c-1.2-0.7-2.6-0.5-4.3,0.4c-1.7,1-3.1,2.5-4.3,4.5c-1.2,2.1-1.8,4.1-1.8,6
				c0,2,0.6,3.3,1.8,4c1.2,0.7,2.6,0.6,4.3-0.4C291.3,204.6,292.8,203,294,201"/>
		</g>
		<g>
			<polygon class="st16" points="271.7,191.9 271.8,225.5 261.9,231.3 261.8,197.7 			"/>
		</g>
		<g>
			<polygon class="st16" points="252.1,203.3 252.1,228.2 260.3,223.5 260.3,232.2 242.5,242.5 242.4,208.9 			"/>
		</g>
		<g>
			<path class="st16" d="M235.4,217.3c3,1.7,4.5,5,4.5,9.9c0,4.8-1.5,9.9-4.5,15c-3,5.2-6.6,9-10.8,11.4c-4.2,2.4-7.8,2.8-10.8,1.1
				c-3-1.7-4.5-4.9-4.6-9.6c0-5,1.4-10,4.4-15.2c2.9-5.2,6.5-9,10.8-11.4C228.7,216,232.4,215.6,235.4,217.3z M229,238.5
				c1.2-2.1,1.8-4.1,1.8-6c0-2-0.6-3.3-1.8-4c-1.2-0.7-2.6-0.5-4.3,0.4c-1.7,1-3.1,2.5-4.3,4.5c-1.2,2.1-1.8,4-1.8,5.9
				c0,2,0.6,3.3,1.8,4c1.2,0.7,2.6,0.6,4.3-0.4C226.3,242.1,227.8,240.6,229,238.5"/>
		</g>
		<g>
			<polygon class="st16" points="207.5,229 207.5,237.8 199.6,242.4 199.6,246.1 207.4,241.7 207.4,250 199.7,254.5 199.7,267.2 
				190.4,272.6 190.3,239 			"/>
		</g>
	</g>
	<linearGradient id="SVGID_13_" gradientUnits="userSpaceOnUse" x1="266.8789" y1="157.7818" x2="265.0385" y2="124.8002">
		<stop  offset="0.689" style="stop-color:#D90668"/>
		<stop  offset="1" style="stop-color:#C91463"/>
	</linearGradient>
	<path class="st23" d="M271.1,118.7v51.1c0,0.6-0.8,0.9-1.1,0.4l-2.3-3.3c-0.5-0.7-1.5-0.6-1.8,0.2l-3.2,8.3
		c-0.2,0.6-1.2,0.5-1.2-0.2l-0.2-50.8L271.1,118.7L271.1,118.7z"/>
</g>
<g class="st24">
	
		<image style="overflow:visible;" width="1619" height="1789" xlink:href="2C76573BCEBF27BD.png"  transform="matrix(0.24 0 0 0.24 -35.41 -28.3204)">
	</image>
</g>
</svg>
